<?xml version="1.0" encoding="utf-8"?>
<!-- Generator: Adobe Illustrator 16.0.0, SVG Export Plug-In . SVG Version: 6.00 Build 0)  -->
<!DOCTYPE svg PUBLIC "-//W3C//DTD SVG 1.1//EN" "http://www.w3.org/Graphics/SVG/1.1/DTD/svg11.dtd">
<svg version="1.1" xmlns="http://www.w3.org/2000/svg" xmlns:xlink="http://www.w3.org/1999/xlink" x="0px" y="0px" width="4000px"
	 height="4000px" viewBox="0 0 4000 4000" enable-background="new 0 0 4000 4000" xml:space="preserve">
<g id="Layer_9">
	<circle fill="#FFFFFF" stroke="#1F1D4F" stroke-width="40" stroke-miterlimit="10" cx="2022.516" cy="1973.091" r="695.657"/>
</g>
<g id="Layer_2">
	<path fill="#DFDFE7" stroke="#1F1D4F" stroke-width="5" stroke-miterlimit="10" d="M1838.031,2301.758c0,0,96.551-66,195.275-44
		c0,0,63.033-42.272,241.725-4.49c0,0,48.17,195.228-223,155.49c0,0-123,7-198-89
		C1854.031,2319.758,1833.031,2319.758,1838.031,2301.758z"/>
	<path fill="#FFFFFF" stroke="#1F1D4E" stroke-width="3" stroke-miterlimit="10" d="M1925.031,2339.758c0,0,250.621,133,353.311,136
		c0,0,115.689-5,78.689-108c0,0-25.838-48.761-135-89c0,0-75,55-183,42C2039.031,2320.758,1898.813,2326.24,1925.031,2339.758z"/>
	
		<path fill="#FFFFFF" stroke="#1F1D4F" stroke-width="2" stroke-linecap="round" stroke-linejoin="round" stroke-miterlimit="10" d="
		M1838.031,2301.758c0,0,22.166,13.501,33.833,11.501c0,0,9.168,25.999,62.001,19.166c0,0-31.584,44.833-70.834-11.833
		C1863.031,2320.592,1834.781,2317.258,1838.031,2301.758z"/>
	
		<path fill="#FFFFFF" stroke="#1F1D4F" stroke-width="2" stroke-linecap="round" stroke-linejoin="round" stroke-miterlimit="10" d="
		M2217.031,2282.591c0,0,29-31.313,56-31.323c0,0,8.278,44.657,1.112,53.157C2274.144,2304.425,2234.672,2276.09,2217.031,2282.591z
		"/>
	<path fill="#DFDFE7" d="M2154.031,2093.758c0,0,80.033-31-10.983-144c0,0-119.017-175,0-311c0,0-145.017,78-10.017,320
		C2133.031,1958.758,2196.822,2051.977,2154.031,2093.758z"/>
	<path fill="#DFDFE7" d="M1964.031,2114.758c0,0-135,10-35-145c0,0,93-171-42-313c0,0,159,60,54,323
		C1941.031,1979.758,1867.354,2076.361,1964.031,2114.758z"/>
	<path fill="#1F1D4F" stroke="#1F1D4F" stroke-linecap="round" stroke-linejoin="round" stroke-miterlimit="10" d="
		M1951.031,2058.758c0,0,31-34,65,22c0,0,47.982,37.775,59.491-16.112c0,0,33.542-48.888,67.525-5.888c0,0,1.739,35.855-67.525,22
		c0,0-14.896,43.274-64.491,7C2011.031,2087.758,1947.031,2115.758,1951.031,2058.758z"/>
	<g>
		<path fill="#1F1D4F" d="M2152.698,1972.091c0,0,1.441,1.483,3.7,4.312c2.252,2.83,5.322,7.009,8.539,12.343
			c1.588,2.676,3.281,5.606,4.833,8.831c1.615,3.194,3.128,6.664,4.559,10.314c0.65,1.849,1.384,3.706,1.959,5.646
			c0.3,0.966,0.601,1.938,0.903,2.915c0.292,0.98,0.52,1.986,0.784,2.985c0.547,1.994,0.947,4.046,1.354,6.102
			c0.229,1.023,0.341,2.073,0.506,3.112c0.145,1.043,0.324,2.082,0.439,3.131l0.269,3.156l0.132,1.576l0.041,1.582
			c0.023,1.054,0.047,2.105,0.07,3.153c0.006,1.048-0.078,2.095-0.114,3.136c-0.064,1.041-0.056,2.08-0.182,3.108
			c-0.124,1.026-0.247,2.049-0.369,3.064l-0.184,1.517c-0.095,0.5-0.188,0.998-0.282,1.494c-0.197,0.989-0.394,1.972-0.588,2.945
			c-0.164,0.98-0.479,1.92-0.73,2.861c-0.27,0.937-0.536,1.865-0.8,2.783c-0.596,1.813-1.317,3.541-1.944,5.24
			c-0.704,1.67-1.504,3.247-2.236,4.781c-0.352,0.775-0.798,1.485-1.22,2.189c-0.421,0.703-0.834,1.393-1.238,2.068
			c-0.417,0.668-0.771,1.352-1.214,1.961c-0.44,0.609-0.87,1.204-1.289,1.785c-0.866,1.139-1.612,2.267-2.443,3.229
			c-1.684,1.907-3.088,3.606-4.396,4.864c-2.633,2.504-4.161,3.872-4.161,3.872s1.223-1.683,3.402-4.517
			c0.573-0.686,1.077-1.549,1.675-2.443c0.582-0.906,1.24-1.861,1.925-2.891s1.27-2.219,1.962-3.414
			c0.342-0.599,0.693-1.213,1.053-1.842c0.365-0.624,0.641-1.318,0.976-1.995c0.321-0.683,0.65-1.379,0.985-2.089
			c0.334-0.709,0.692-1.421,0.951-2.193c0.555-1.526,1.232-3.057,1.777-4.685c0.476-1.653,1.04-3.322,1.479-5.065
			c0.34-1.77,0.864-3.529,1.141-5.376c0.601-3.681,1.059-7.511,1.105-11.43c0.011-0.979,0.072-1.96,0.044-2.947
			c-0.035-0.986-0.07-1.976-0.105-2.968l-0.048-1.488l-0.137-1.487l-0.271-2.979c-0.485-3.963-1.123-7.919-2.04-11.765
			c-0.841-3.861-1.986-7.595-3.106-11.206c-1.234-3.575-2.426-7.048-3.78-10.26c-1.317-3.226-2.675-6.238-3.962-9.01
			c-1.342-2.742-2.565-5.272-3.741-7.468c-1.167-2.201-2.214-4.11-3.1-5.673c-0.904-1.549-1.599-2.784-2.108-3.603
			C2152.967,1972.531,2152.698,1972.091,2152.698,1972.091z"/>
	</g>
	<g>
		<path fill="#1F1D4F" d="M1927.366,1982.758c0,0-0.334,0.584-0.96,1.681c-0.619,1.099-1.481,2.736-2.58,4.813
			c-1.091,2.081-2.358,4.635-3.779,7.571c-1.404,2.946-2.905,6.305-4.467,9.988c-1.547,3.691-3.073,7.745-4.564,12.059
			c-1.477,4.32-2.776,8.947-3.935,13.754c-1.105,4.819-1.931,9.857-2.345,14.98c-0.438,5.123-0.34,10.345,0.375,15.451
			c0.377,2.549,0.861,5.078,1.56,7.537c0.729,2.443,1.542,4.861,2.633,7.132c2.081,4.586,4.869,8.749,8.079,12.358
			c3.217,3.604,6.828,6.674,10.516,9.242c3.699,2.559,7.464,4.629,11.025,6.379c0.898,0.423,1.77,0.858,2.639,1.248
			c0.876,0.375,1.732,0.741,2.567,1.098c1.654,0.76,3.295,1.309,4.804,1.92c3.06,1.098,5.751,2.034,8.001,2.703
			c2.237,0.719,4.021,1.201,5.233,1.553c1.215,0.348,1.863,0.533,1.863,0.533s-0.667-0.093-1.918-0.268
			c-1.247-0.193-3.103-0.374-5.416-0.852c-2.33-0.41-5.144-1.009-8.342-1.847c-3.186-0.878-6.793-1.903-10.587-3.46
			c-3.805-1.512-7.882-3.366-11.913-5.885c-4.033-2.493-8.107-5.541-11.705-9.376c-0.89-0.966-1.812-1.919-2.633-2.976
			c-0.419-0.521-0.857-1.03-1.264-1.568c-0.394-0.547-0.79-1.095-1.187-1.646c-0.815-1.087-1.486-2.282-2.234-3.437
			c-0.633-1.219-1.354-2.404-1.904-3.679c-2.4-5.011-3.944-10.483-4.766-16.019c-0.718-5.553-0.753-11.146-0.231-16.563
			c0.104-1.358,0.296-2.698,0.463-4.034c0.225-1.325,0.41-2.651,0.681-3.95c0.478-2.612,1.11-5.151,1.745-7.64
			c1.32-4.965,2.964-9.641,4.707-13.982c1.731-4.347,3.604-8.35,5.459-11.969c3.69-7.253,7.328-12.967,9.992-16.868
			c1.319-1.959,2.446-3.438,3.202-4.451C1926.954,1983.291,1927.366,1982.758,1927.366,1982.758z"/>
	</g>
	<g>
		<path fill="#1F1D4F" d="M2106.109,2395.839c0,0,1.924,0.942,5.349,2.411c1.708,0.743,3.806,1.589,6.208,2.546
			c2.401,0.96,5.15,1.939,8.133,3.026c1.505,0.507,3.059,1.068,4.693,1.574c1.625,0.533,3.303,1.083,5.039,1.61
			c3.469,1.069,7.16,2.075,10.988,3.054c3.825,0.989,7.811,1.87,11.869,2.7c2.027,0.426,4.091,0.747,6.146,1.15
			c2.071,0.316,4.142,0.69,6.227,0.963c4.163,0.589,8.342,1.078,12.468,1.409c2.063,0.177,4.11,0.337,6.138,0.428
			c1.014,0.057,2.021,0.111,3.021,0.167c1.002,0.027,1.996,0.055,2.982,0.082s1.965,0.055,2.935,0.082
			c0.97,0.001,1.93,0.003,2.88,0.004c1.901,0.002,3.766,0.035,5.575-0.055c3.626-0.088,7.051-0.293,10.222-0.481
			c1.585-0.094,3.092-0.292,4.538-0.4c1.444-0.126,2.821-0.21,4.101-0.391c2.561-0.348,4.826-0.518,6.664-0.814
			c3.685-0.55,5.818-0.811,5.818-0.811s-2.022,0.684-5.611,1.783c-1.792,0.564-4.006,1.088-6.546,1.727
			c-2.542,0.623-5.442,1.19-8.62,1.756c-1.596,0.245-3.258,0.501-4.978,0.766c-1.724,0.263-3.519,0.385-5.36,0.592
			c-1.842,0.218-3.741,0.315-5.684,0.447c-1.942,0.162-3.931,0.195-5.953,0.23c-1.012,0.017-2.032,0.034-3.061,0.052
			c-1.027-0.021-2.062-0.042-3.104-0.063c-1.041-0.024-2.089-0.049-3.143-0.073c-1.051-0.063-2.107-0.126-3.168-0.189
			c-4.247-0.228-8.542-0.721-12.822-1.299c-2.139-0.295-4.262-0.693-6.386-1.033c-2.109-0.416-4.214-0.82-6.285-1.291
			c-2.069-0.477-4.126-0.939-6.131-1.5c-1.005-0.27-2.004-0.538-2.995-0.805c-0.984-0.293-1.961-0.585-2.93-0.874
			c-1.939-0.565-3.819-1.215-5.662-1.83c-1.826-0.671-3.625-1.287-5.346-1.967c-3.468-1.292-6.667-2.714-9.6-4.054
			c-2.926-1.357-5.564-2.686-7.859-3.947c-2.309-1.231-4.266-2.406-5.861-3.395c-1.604-0.973-2.813-1.822-3.643-2.386
			C2106.532,2396.168,2106.109,2395.839,2106.109,2395.839z"/>
	</g>
	<g>
		<path fill="#1F1D4F" d="M2186.558,2437.837c0,0,2.097-0.313,5.776-0.712c1.84-0.196,4.076-0.439,6.643-0.65
			c2.567-0.223,5.465-0.47,8.629-0.654c3.164-0.208,6.593-0.418,10.223-0.544c3.629-0.146,7.458-0.29,11.421-0.351
			c7.926-0.133,16.387-0.063,24.845,0.258c8.458,0.335,16.914,0.922,24.817,1.797c1.975,0.235,3.918,0.454,5.814,0.711
			c1.895,0.281,3.748,0.556,5.553,0.822c1.8,0.307,3.554,0.569,5.243,0.888c1.684,0.342,3.311,0.672,4.873,0.989
			c1.556,0.357,3.049,0.678,4.46,1.023c1.403,0.38,2.735,0.74,3.987,1.079c2.488,0.734,4.641,1.416,6.379,2.09
			c1.756,0.604,3.084,1.229,3.992,1.628c0.904,0.408,1.387,0.626,1.387,0.626s-0.516-0.123-1.481-0.354
			c-0.958-0.247-2.364-0.591-4.173-0.943c-1.791-0.406-4.005-0.735-6.517-1.178c-1.265-0.181-2.61-0.373-4.029-0.575
			c-1.421-0.179-2.915-0.367-4.475-0.563c-3.125-0.348-6.515-0.667-10.099-1.004c-1.796-0.14-3.641-0.283-5.525-0.43
			c-1.888-0.127-3.816-0.258-5.777-0.391c-1.963-0.117-3.958-0.236-5.978-0.357c-2.021-0.105-4.067-0.213-6.13-0.32
			c-4.126-0.19-8.318-0.4-12.517-0.542c-4.195-0.186-8.396-0.305-12.53-0.452c-4.137-0.129-8.209-0.256-12.148-0.379
			c-7.891-0.246-15.256-0.475-21.568-0.67c-6.319-0.193-11.592-0.408-15.285-0.564
			C2188.67,2437.938,2186.558,2437.837,2186.558,2437.837z"/>
	</g>
	<path fill="#1F1D4F" stroke="#1F1D4F" stroke-linecap="round" stroke-linejoin="round" stroke-miterlimit="10" d="
		M2073.111,1671.758c0,0,15.346-63.376,57.92-79.875c0,0-32.778,20.993-36.922,61.875c0,0,30.185-70.875,91.589-78.375
		c0,0-49.259,12.199-56.294,48.187c0,0,152.196-141.924,309.688,48.188c0,0-154.492-115.117-230.988-18
		c0,0-1.501-13.878,5.999-22.877c0,0-29.624,0.762-39.546,40.877c0,0-1.265-37.214,19.141-49.545c0,0-38.184,22.055-53,62.666
		c0,0,1.878-35.715,25.643-56.105c0,0-40.37,35.26-47.301,62.932c0,0-3.984-40.717,21.658-51.824c0,0-38.399,30.152-36.494,51.824
		c0,0-9.39-7.759,7.905-37.946c0,0-9.428,1.175-24.067,37.946c0,0,0.989-20.196,7.239-30.196c0,0-12.5,11.643-15.25,30.196
		c0,0-1.5-21.446,5-29.696L2073.111,1671.758z"/>
	<path fill="#1F1D4F" stroke="#1F1D4F" stroke-linecap="round" stroke-linejoin="round" stroke-miterlimit="10" d="
		M1967.098,1680.769c0,0-21.424-77.633-68.365-66.801c0,0,19.037,2.128,39.72,23.856c0,0-22.496-27.735-75.792-24.893
		c0,0-173.487-63.34-241.962,110.049c0,0,88.608-118.039,200.924-65.682c0,0,16.665-3.61,31.993,27.984
		c0,0-11.334-33.4-26.89-37.011c0,0,31.416,14.309,40.413,37.011c0,0-7.673-28.887-20.537-35.206c0,0,24.694,13.147,29.564,36.108
		c0,0-3.538-26.178-13.505-38.816c0,0,18.566,23.359,24.338,44.185c0,0,0-18.006-9.931-34.255c0,0,23.747,20.021,26.179,39.72
		c0,0-4.383-29.693-9.864-34.707c0,0,18.892,21.678,28.821,40.378c0,0-3.611-29.949-13.541-40.378c0,0,18.055,21.678,24.373,40.378
		c0,0-1.831-22.824-4.526-36.364c0,0,13.144,16.738,18.067,36.364c0,0,7.222-25.532-9.027-45.392c0,0,24.373,12.628,25.276,34.255
		c0,0-1.806-25.228-10.833-34.255C1951.992,1657.298,1965.201,1673.697,1967.098,1680.769z"/>
</g>
<g id="Layer_3">
	<path fill="#DFDFE7" d="M2097.031,1815.758c0,0-33-102.568,39-120.284c0,0,156-84.216,264,89.034c0,0-44.75-31.25-52.25-33.25
		c0,0,48.917,38.167,52.25,64.5c0,0-134.755,95.667-270.711,25c0,0-19.956-16.577-20.623,10.021
		C2108.697,1850.78,2096.698,1837.424,2097.031,1815.758z"/>
	<path fill="#DFDFE7" d="M1952.031,1850.78c0,0,32-66.189-27-108.355c0,0-191.8-117.711-289.667,60.667
		c0,0,58.748-57.043,80.667-51.333c0,0-61.839,22-68.5,96c0,0,26.065,122.172,271.09,19.021c0,0,25.184,2.504,13.341,19.045
		C1931.962,1885.823,1953.945,1887.69,1952.031,1850.78z"/>
	<path fill="#1F1D4F" stroke="#1F1D4F" stroke-linecap="round" stroke-linejoin="round" stroke-miterlimit="10" d="
		M2131.04,1802.758c0,0,78.991-190,246.991-14c0,0,14.977,44-212.512,32C2165.52,1820.758,2120.025,1823.515,2131.04,1802.758z"/>
	<path fill="#FFFFFF" stroke="#1F1D4F" stroke-linecap="round" stroke-linejoin="round" stroke-miterlimit="10" d="
		M2143.052,1797.758c0,0,62.979-153.202,198.979-28.768c0,0,37.334,35.768-17.333,39.768
		C2324.698,1808.758,2140.795,1832.886,2143.052,1797.758z"/>
	
		<circle fill="#1F1D4F" stroke="#1F1D4F" stroke-linecap="round" stroke-linejoin="round" stroke-miterlimit="10" cx="2209.427" cy="1766.657" r="38.435"/>
	
		<circle fill="#FFFFFF" stroke="#1F1D4F" stroke-linecap="round" stroke-linejoin="round" stroke-miterlimit="10" cx="2205.698" cy="1765.758" r="8"/>
	<path fill="#1F1D4F" stroke="#1F1D4F" stroke-linecap="round" stroke-linejoin="round" stroke-miterlimit="10" d="
		M1672.031,1806.679c0,0,108-163.759,235,10.16c0,0,8,52.663-186,26.791C1721.031,1843.63,1665.181,1849.733,1672.031,1806.679z"/>
	<path fill="#FFFFFF" stroke="#1F1D4F" stroke-linecap="round" stroke-linejoin="round" stroke-miterlimit="10" d="
		M1682.031,1811.758c0,0,101-156,205,0c0,0,3,56-183,19C1704.031,1830.758,1672.333,1824.748,1682.031,1811.758z"/>
	
		<circle fill="#1F1D4F" stroke="#1F1D4F" stroke-linecap="round" stroke-linejoin="round" stroke-miterlimit="10" cx="1811.281" cy="1784.508" r="39.25"/>
	
		<circle fill="#FFFFFF" stroke="#1F1D4F" stroke-linecap="round" stroke-linejoin="round" stroke-miterlimit="10" cx="1819.051" cy="1779.778" r="10.02"/>
	<g>
		<path fill="#1F1D4F" d="M2129.32,1773.758c0,0,0.434-1.099,1.355-3.115c0.934-2.009,2.316-4.959,4.334-8.581
			c1.998-3.631,4.567-7.971,7.832-12.75c3.269-4.773,7.176-10.034,11.93-15.373c4.719-5.364,10.235-10.866,16.655-16.019
			c3.187-2.604,6.62-5.09,10.247-7.461c3.607-2.403,7.492-4.56,11.536-6.56c4.036-2.022,8.298-3.769,12.698-5.284
			c4.391-1.554,8.971-2.738,13.636-3.644c4.661-0.961,9.44-1.445,14.235-1.777c2.401-0.093,4.809-0.227,7.219-0.159
			c2.413-0.026,4.818,0.134,7.227,0.271c9.624,0.692,19.093,2.679,28.136,5.372c9.057,2.687,17.626,6.305,25.657,10.236
			c8.027,3.951,15.515,8.281,22.348,12.763c1.74,1.07,3.374,2.251,5.022,3.355c1.627,1.134,3.281,2.176,4.808,3.342
			c3.084,2.287,6.105,4.436,8.878,6.666c1.399,1.096,2.771,2.168,4.11,3.217c1.331,1.06,2.599,2.134,3.842,3.172
			c1.24,1.04,2.449,2.053,3.624,3.039c1.172,0.988,2.271,1.995,3.355,2.945c2.146,1.93,4.216,3.66,6.013,5.394
			c1.815,1.71,3.482,3.281,4.988,4.7c1.521,1.401,2.814,2.722,3.949,3.858c1.135,1.137,2.1,2.104,2.882,2.889
			c1.563,1.567,2.397,2.403,2.397,2.403s-0.898-0.767-2.583-2.205c-1.693-1.427-4.132-3.568-7.309-6.204
			c-3.184-2.628-7.034-5.832-11.562-9.364c-1.13-0.884-2.274-1.824-3.491-2.741c-1.22-0.914-2.475-1.854-3.763-2.818
			c-1.294-0.955-2.59-1.976-3.955-2.967c-1.373-0.981-2.777-1.986-4.211-3.012c-5.73-4.106-12.115-8.293-18.979-12.505
			c-1.731-1.026-3.487-2.067-5.264-3.12c-1.808-0.996-3.637-2.004-5.486-3.023c-1.837-1.041-3.76-1.964-5.669-2.957
			c-0.958-0.49-1.92-0.982-2.887-1.477c-0.983-0.458-1.971-0.918-2.963-1.38c-7.916-3.734-16.361-6.98-25.126-9.577
			c-8.771-2.555-17.905-4.401-27.127-5.017c-2.304-0.145-4.608-0.315-6.914-0.302c-2.307-0.081-4.606,0.036-6.902,0.108
			c-4.581,0.292-9.147,0.72-13.599,1.612c-8.917,1.671-17.495,4.431-25.332,8.147c-3.927,1.84-7.685,3.88-11.25,6.072
			c-3.571,2.181-6.973,4.485-10.145,6.919c-3.19,2.411-6.182,4.912-8.981,7.438c-2.817,2.509-5.439,5.054-7.864,7.589
			c-4.864,5.057-8.998,10.017-12.488,14.551c-3.459,4.558-6.309,8.669-8.525,12.142
			C2131.404,1769.503,2129.32,1773.758,2129.32,1773.758z"/>
	</g>
	<g>
		<path fill="#1F1D4F" d="M2143.031,1843.399c0,0,0.801,0.544,2.363,1.458c1.561,0.917,3.914,2.146,6.941,3.62
			c3.033,1.466,6.811,3.04,11.184,4.699c4.381,1.649,9.432,3.193,14.972,4.706c1.394,0.347,2.817,0.7,4.268,1.061
			c1.447,0.365,2.949,0.633,4.461,0.962c3.017,0.688,6.186,1.161,9.416,1.75c1.629,0.221,3.28,0.444,4.951,0.671
			c0.836,0.107,1.673,0.241,2.522,0.328c0.849,0.08,1.703,0.161,2.563,0.242c1.717,0.161,3.452,0.324,5.204,0.489
			c1.757,0.107,3.53,0.215,5.318,0.325c1.786,0.139,3.593,0.17,5.413,0.198c1.819,0.033,3.65,0.066,5.494,0.099
			c1.844-0.041,3.698-0.082,5.563-0.124c0.932-0.015,1.866-0.03,2.803-0.045c0.936-0.025,1.873-0.098,2.813-0.145
			c1.879-0.106,3.765-0.212,5.656-0.318c1.893-0.086,3.779-0.345,5.677-0.509c1.895-0.195,3.796-0.356,5.693-0.578l5.681-0.801
			c3.801-0.443,7.563-1.162,11.319-1.817c3.77-0.588,7.461-1.515,11.151-2.29c1.843-0.398,3.681-0.787,5.482-1.289
			c1.813-0.459,3.617-0.916,5.41-1.37c3.603-0.848,7.096-1.933,10.546-2.953c1.726-0.511,3.437-1.018,5.131-1.52
			c1.677-0.559,3.339-1.112,4.982-1.659c1.646-0.545,3.273-1.084,4.882-1.616c1.611-0.527,3.202-1.049,4.74-1.652
			c3.097-1.155,6.109-2.279,9.023-3.366c1.469-0.515,2.889-1.085,4.273-1.664c1.391-0.569,2.755-1.127,4.092-1.674
			c2.67-1.101,5.245-2.124,7.668-3.157c2.41-1.069,4.695-2.083,6.843-3.036c2.151-0.95,4.166-1.839,6.028-2.662
			c1.838-0.874,3.527-1.678,5.052-2.403c3.044-1.467,5.464-2.572,7.104-3.348c1.643-0.769,2.52-1.179,2.52-1.179
			s-0.832,0.493-2.391,1.417c-1.563,0.919-3.839,2.298-6.773,3.992c-1.467,0.85-3.091,1.79-4.858,2.814
			c-1.806,0.954-3.759,1.986-5.845,3.09c-2.092,1.1-4.316,2.271-6.662,3.505c-2.363,1.199-4.907,2.339-7.532,3.596
			c-1.315,0.621-2.659,1.255-4.029,1.901c-1.365,0.656-2.765,1.306-4.217,1.903c-2.896,1.214-5.891,2.47-8.969,3.76
			c-1.531,0.667-3.118,1.256-4.726,1.85c-1.605,0.6-3.23,1.208-4.873,1.821c-1.645,0.614-3.303,1.243-4.994,1.833
			c-1.705,0.548-3.428,1.102-5.163,1.66c-3.474,1.114-6.993,2.294-10.631,3.241c-3.626,0.986-7.267,2.103-11.029,2.872
			c-3.748,0.818-7.496,1.786-11.332,2.416c-3.822,0.694-7.648,1.463-11.525,1.934l-5.802,0.772
			c-1.938,0.212-3.881,0.363-5.817,0.547c-1.938,0.153-3.864,0.401-5.8,0.476c-1.934,0.094-3.861,0.188-5.781,0.282
			c-0.961,0.041-1.918,0.106-2.875,0.126c-0.957,0.005-1.912,0.01-2.865,0.015c-1.906-0.001-3.802-0.002-5.687-0.004
			c-1.884-0.077-3.756-0.153-5.614-0.229c-1.858-0.071-3.703-0.146-5.527-0.328c-1.824-0.153-3.635-0.306-5.427-0.456
			c-1.79-0.177-3.555-0.441-5.302-0.666c-0.873-0.116-1.742-0.231-2.605-0.346c-0.863-0.122-1.715-0.29-2.563-0.431
			c-1.696-0.295-3.372-0.587-5.024-0.875c-6.58-1.332-12.734-2.892-18.303-4.693c-5.565-1.804-10.575-3.719-14.895-5.688
			c-4.324-1.952-7.989-3.869-10.924-5.587c-2.938-1.709-5.146-3.213-6.625-4.268
			C2143.775,1844.018,2143.031,1843.399,2143.031,1843.399z"/>
	</g>
	<g>
		<path fill="#1F1D4F" d="M1680.187,1866.342c0,0,0.441,0.856,1.537,2.267c1.088,1.414,2.86,3.35,5.369,5.509
			c2.514,2.152,5.805,4.479,9.835,6.687c4.047,2.18,8.838,4.192,14.204,5.95c1.351,0.411,2.73,0.83,4.136,1.256
			c1.428,0.353,2.882,0.712,4.361,1.079c1.468,0.399,3.007,0.637,4.545,0.964c1.545,0.3,3.101,0.656,4.713,0.857
			c1.604,0.237,3.229,0.477,4.874,0.72c1.649,0.212,3.333,0.342,5.026,0.521c3.381,0.396,6.871,0.511,10.402,0.749
			c1.766,0.118,3.559,0.084,5.357,0.134c1.801,0.016,3.612,0.094,5.438,0.06c1.826-0.044,3.663-0.089,5.509-0.133
			c1.846-0.038,3.701-0.044,5.563-0.179c7.45-0.341,15.011-0.972,22.547-1.868l5.652-0.673c1.883-0.22,3.766-0.433,5.634-0.741
			c3.741-0.572,7.468-1.142,11.165-1.707c3.68-0.683,7.335-1.335,10.953-1.958c1.811-0.296,3.599-0.658,5.373-1.029
			c1.775-0.363,3.538-0.723,5.286-1.08c1.749-0.357,3.482-0.712,5.2-1.063c1.72-0.339,3.403-0.771,5.084-1.13
			c3.354-0.753,6.637-1.49,9.832-2.208c6.368-1.555,12.387-3.024,17.945-4.381c5.536-1.46,10.612-2.798,15.11-3.984
			c1.126-0.296,2.216-0.582,3.268-0.858c1.047-0.294,2.057-0.578,3.025-0.851c1.942-0.539,3.726-1.034,5.337-1.481
			c3.22-0.906,5.768-1.564,7.498-2.036c1.733-0.466,2.657-0.714,2.657-0.714s-0.895,0.338-2.572,0.971
			c-1.68,0.627-4.133,1.58-7.279,2.726c-1.571,0.579-3.312,1.219-5.206,1.917c-1.89,0.715-3.952,1.429-6.168,2.157
			c-4.424,1.48-9.411,3.171-14.886,4.917c-5.506,1.638-11.452,3.498-17.807,5.236c-6.376,1.654-13.06,3.587-20.1,5.085
			c-1.754,0.401-3.522,0.805-5.303,1.212c-1.78,0.415-3.575,0.822-5.396,1.164c-3.632,0.731-7.314,1.449-11.03,2.147
			c-3.736,0.601-7.501,1.206-11.281,1.813c-1.887,0.326-3.793,0.557-5.7,0.795l-5.725,0.721c-7.649,0.85-15.335,1.433-22.92,1.722
			c-3.789,0.212-7.565,0.099-11.285,0.135c-1.861-0.009-3.713-0.129-5.55-0.188c-1.837-0.093-3.661-0.102-5.467-0.263
			c-3.611-0.336-7.171-0.495-10.625-1.057c-1.729-0.249-3.443-0.448-5.125-0.729c-1.679-0.313-3.337-0.623-4.973-0.929
			c-6.518-1.342-12.623-2.973-18.041-5.12c-5.438-2.072-10.223-4.484-14.221-7.006c-4-2.525-7.161-5.207-9.543-7.603
			c-2.394-2.394-3.952-4.561-4.916-6.079C1680.541,1867.237,1680.187,1866.342,1680.187,1866.342z"/>
	</g>
	<g>
		<path fill="#1F1D4F" d="M1665.531,1769.758c0,0,0.792-0.798,2.333-2.238c1.547-1.433,3.83-3.528,6.864-6.045
			c3.03-2.52,6.775-5.511,11.228-8.739c4.454-3.222,9.579-6.739,15.384-10.244c5.797-3.514,12.223-7.114,19.277-10.423
			c7.031-3.351,14.656-6.491,22.776-9.1c4.065-1.284,8.229-2.514,12.51-3.515c2.13-0.547,4.304-0.966,6.479-1.434
			c1.09-0.223,2.194-0.388,3.295-0.585c1.101-0.193,2.205-0.386,3.32-0.526c4.442-0.687,8.964-1.072,13.508-1.362
			c4.55-0.172,9.13-0.287,13.704-0.006c9.15,0.447,18.234,2.019,26.929,4.388c8.717,2.332,16.939,5.793,24.536,9.726
			c7.608,3.934,14.514,8.525,20.712,13.277c6.237,4.715,11.646,9.756,16.431,14.57c1.186,1.215,2.346,2.404,3.48,3.567
			c1.088,1.204,2.151,2.38,3.188,3.527c2.102,2.266,3.898,4.586,5.679,6.681c3.461,4.276,6.332,8.112,8.581,11.35
			c2.33,3.178,3.945,5.825,5.112,7.579c1.15,1.766,1.764,2.708,1.764,2.708s-0.69-0.887-1.985-2.551
			c-1.299-1.659-3.162-4.121-5.682-7.133c-2.457-3.061-5.59-6.652-9.238-10.702c-1.884-1.973-3.788-4.161-5.992-6.278
			c-1.078-1.081-2.184-2.189-3.314-3.323c-1.169-1.095-2.364-2.214-3.586-3.357c-4.93-4.514-10.449-9.21-16.664-13.64
			c-6.202-4.442-13.065-8.649-20.479-12.347c-7.414-3.696-15.435-6.756-23.813-8.994c-8.378-2.225-17.114-3.673-25.92-4.056
			c-4.397-0.3-8.812-0.215-13.203-0.08c-4.387,0.253-8.759,0.594-13.064,1.232c-8.616,1.204-17.015,3.085-24.981,5.48
			c-7.956,2.432-15.532,5.218-22.542,8.292c-7.018,3.058-13.505,6.308-19.388,9.513c-5.87,3.228-11.14,6.406-15.739,9.34
			c-4.579,2.966-8.514,5.652-11.695,7.949c-3.172,2.309-5.645,4.16-7.295,5.468
			C1666.387,1769.028,1665.531,1769.758,1665.531,1769.758z"/>
	</g>
</g>
<g id="Layer_4">
</g>
<g id="Layer_5">
</g>
<g id="Layer_6">
</g>
<g id="Layer_7">
</g>
<g id="Layer_8">
</g>
</svg>
