<?xml version="1.0" encoding="UTF-8" standalone="no"?>
<!-- Created with Inkscape (http://www.inkscape.org/) -->

<svg
   version="1.1"
   id="svg2"
   width="5333.3335"
   height="5333.3335"
   viewBox="0 0 5333.3335 5333.3335"
   sodipodi:docname="nathan.svg"
   inkscape:version="1.2.1 (9c6d41e410, 2022-07-14)"
   xmlns:inkscape="http://www.inkscape.org/namespaces/inkscape"
   xmlns:sodipodi="http://sodipodi.sourceforge.net/DTD/sodipodi-0.dtd"
   xmlns="http://www.w3.org/2000/svg"
   xmlns:svg="http://www.w3.org/2000/svg">
  <defs
     id="defs6">
    <clipPath
       clipPathUnits="userSpaceOnUse"
       id="clipPath26">
      <path
         d="M 0,4000 H 4000 V 0 H 0 Z"
         id="path24" />
    </clipPath>
    <clipPath
       clipPathUnits="userSpaceOnUse"
       id="clipPath270">
      <path
         d="M 0,4000 H 4000 V 0 H 0 Z"
         id="path268" />
    </clipPath>
    <clipPath
       clipPathUnits="userSpaceOnUse"
       id="clipPath278">
      <path
         d="M 646,3868 H 3647.45 V 210.69 H 646 Z"
         id="path276" />
    </clipPath>
  </defs>
  <sodipodi:namedview
     id="namedview4"
     pagecolor="#bdbde0"
     bordercolor="#999999"
     borderopacity="1"
     inkscape:showpageshadow="0"
     inkscape:pageopacity="0"
     inkscape:pagecheckerboard="0"
     inkscape:deskcolor="#d1d1d1"
     showgrid="false"
     inkscape:zoom="0.1584375"
     inkscape:cx="1495.858"
     inkscape:cy="2676.1341"
     inkscape:window-width="1920"
     inkscape:window-height="1011"
     inkscape:window-x="0"
     inkscape:window-y="32"
     inkscape:window-maximized="1"
     inkscape:current-layer="g10">
    <inkscape:page
       x="0"
       y="0"
       id="page8"
       width="5333.3335"
       height="5333.3335" />
  </sodipodi:namedview>
  <g
     id="g10"
     inkscape:groupmode="layer"
     inkscape:label="Page 1"
     transform="matrix(1.3333333,0,0,-1.3333333,0,5333.3333)">
    <g
       id="g12"
       transform="translate(1433.3608,841.0674)">
      <path
         d="M 0,0 27.653,671.725 1194.134,625.243 1106.335,-49.893 490.815,-439.437 Z"
         style="fill:#bdbde0;fill-opacity:1;fill-rule:nonzero;stroke:none"
         id="path14" />
    </g>
    <g
       id="g16"
       transform="translate(1453.8281,1520.584)">
      <path
         d="m 0,0 -0.616,-14.967 -27.199,-660.705 -0.291,-7.071 5.273,-4.722 483.955,-433.295 8.447,-7.562 9.58,6.063 607.758,384.631 5.946,3.763 0.907,6.978 86.287,663.512 2.115,16.27 -16.392,0.653 L 14.968,-0.596 Z m 14.371,-15.584 1150.801,-45.856 -86.287,-663.513 -607.758,-384.631 -483.955,433.295 z"
         style="fill:#282855;fill-opacity:1;fill-rule:nonzero;stroke:none"
         id="path18" />
    </g>
    <g
       id="g20">
      <g
         id="g22"
         clip-path="url(#clipPath26)">
        <g
           id="g28"
           transform="translate(2507.5,920.5)">
          <path
             d="m 0,0 c -54.74,-163.23 -370.02,-343.3 -372.98,-344.99 83.33,58.551 110.55,175.15 110.97,176.97 C -314.03,-287.02 -569,-447 -569,-447 c -128,63 -269,293 -269,293 15.88,-92.27 101.64,-168.8 102.98,-169.99 C -917.01,-226.98 -989,108 -989,108 c 0,0 280,-363 482,-298 202,65 531,427 531,427 0,0 31,-73 -24,-237 m -1039.3,584.5 -27.2,-660.7 483.96,-433.3 607.75,384.63 86.29,663.511 z"
             style="fill:#6e6eb3;fill-opacity:1;fill-rule:nonzero;stroke:none"
             id="path30" />
        </g>
        <g
           id="g32"
           transform="translate(2507.5,920.5)">
          <path
             d="m 0,0 c -54.74,-163.23 -370.02,-343.3 -372.98,-344.99 83.33,58.551 110.55,175.15 110.97,176.97 C -314.03,-287.02 -569,-447 -569,-447 c -128,63 -269,293 -269,293 15.88,-92.27 101.64,-168.8 102.98,-169.99 C -917.01,-226.98 -989,108 -989,108 c 0,0 280,-363 482,-298 202,65 531,427 531,427 0,0 31,-73 -24,-237"
             style="fill:#bdbde0;fill-opacity:1;fill-rule:nonzero;stroke:none"
             id="path34" />
        </g>
        <g
           id="g36"
           transform="translate(2731.8398,1779.3926)">
          <path
             d="m 0,0 c -18.438,0 -32.903,7.758 -42.992,23.06 -20.674,31.352 -22.658,94.204 -5.898,186.806 12.441,68.728 31.145,129.989 32.954,134.211 3.044,7.102 105.617,179.014 117.303,198.593 0.121,0.203 11.737,19.502 26.222,38.538 20.505,26.946 36.296,40.044 48.273,40.044 0.89,0 1.772,-0.071 2.62,-0.212 26.404,-4.401 38.178,-21.651 38.178,-55.933 0,-3.377 0.011,-6.943 0.023,-10.684 0.1,-32.174 0.239,-76.237 -6.066,-123.97 -1.788,-13.54 -3.495,-24.758 -5,-34.655 -4.264,-28.038 -6.614,-43.482 -3.041,-62.78 2.662,-14.372 14.387,-90.144 -16.242,-170.688 l -0.542,-1.425 C 171.993,124.611 157.724,87.083 131.149,56.714 100.61,21.814 59.003,3.301 3.949,0.116 2.619,0.039 1.291,0 0,0"
             style="fill:#bdbde0;fill-opacity:1;fill-rule:nonzero;stroke:none"
             id="path38" />
        </g>
        <g
           id="g40"
           transform="translate(2907.7021,2405.645)">
          <path
             d="M 0,0 H -0.001 -0.002 C -8.706,-0.001 -23.594,-4.358 -52.252,-42.018 -66.903,-61.271 -78.299,-80.204 -78.776,-81 c -26.836,-44.961 -114.59,-192.142 -117.618,-199.206 -1.835,-4.284 -20.768,-66.176 -33.278,-135.29 -16.997,-93.911 -14.763,-157.987 6.644,-190.45 10.916,-16.555 27.226,-25.306 47.166,-25.306 1.386,0 2.812,0.041 4.238,0.124 56.462,3.266 99.206,22.336 130.674,58.297 27.166,31.044 41.597,69 55.553,105.706 l 0.542,1.425 c 31.103,81.791 19.19,158.774 16.486,173.376 -3.421,18.469 -1.253,32.722 3.067,61.117 1.509,9.92 3.219,21.164 5.014,34.752 6.348,48.067 6.21,92.325 6.108,124.642 -0.01,3.735 -0.022,7.296 -0.022,10.668 0,18.439 -3.076,31.641 -9.68,41.547 -7,10.5 -17.688,16.819 -32.676,19.317 C 2.323,-0.095 1.165,0 0,0 m 0,-10 c 0.613,0 1.212,-0.047 1.798,-0.145 24,-4 34,-19 34,-51 0,-32 1,-81 -6,-134 -7,-53 -13,-72 -8,-99 5,-27 11,-97 -16,-168 -27,-71 -57,-152 -178,-159 -1.24,-0.072 -2.467,-0.107 -3.66,-0.107 -115.246,0 -14.309,330.179 -11.34,337.107 3,7 117,198 117,198 0,0 45.686,76.142 70.202,76.145"
             style="fill:#282855;fill-opacity:1;fill-rule:nonzero;stroke:none"
             id="path42" />
        </g>
        <g
           id="g44"
           transform="translate(2879,1970)">
          <path
             d="m 0,0 c -14,-53 -13,-92 -42,-119 -29,-27 -70,12 -54,56 16,44 42,54 62,78 20,24 48,86 57,133 9,47 -12,96 -23,93 -11,-3 -10,-66 -17,-100 -7,-34 -29,-32 -24,-5 5,27 22.75,107 10.88,105 C -42,239 -78.26,193.64 -76.63,152.32 -75,111 -68,21 -84,-13 c -16,-34 -33,66 -26,112 7,46 47,151 47,151 0,0 55,99 71,71 C 24,293 19,277 30,213 41,149 14,53 0,0 m 64.5,374.5 c 0,32 -10,47 -34,51 -24,4 -72,-76 -72,-76 0,0 -114,-191 -117,-198 -3,-7 -106,-344 15,-337 121,7 151,88 178,159 27,71 21,141 16,168 -5,27 1,46 8,99 7,53 6,102 6,134"
             style="fill:#8383bf;fill-opacity:1;fill-rule:nonzero;stroke:none"
             id="path46" />
        </g>
        <g
           id="g48"
           transform="translate(2887.5,2301.5)">
          <path
             d="m 0,0 c -4.897,-4.125 19,42 31,48 12,6 14,-29 12,-63 -2,-34 -7,-71 -7,-99 v -28 c 0,0 2,174 -36,142"
             style="fill:#282855;fill-opacity:1;fill-rule:nonzero;stroke:none"
             id="path50" />
        </g>
        <g
           id="g52"
           transform="translate(2887.5,2301.5)">
          <path
             d="m 0,0 c -4.897,-4.125 19,42 31,48 12,6 14,-29 12,-63 -2,-34 -7,-71 -7,-99 v -28 c 0,0 2,174 -36,142 z"
             style="fill:none;stroke:#bdbde0;stroke-width:1;stroke-linecap:butt;stroke-linejoin:miter;stroke-miterlimit:10;stroke-dasharray:none;stroke-opacity:1"
             id="path54" />
        </g>
        <g
           id="g56"
           transform="translate(2852.5,2219.5)">
          <path
             d="m 0,0 c 0,0 -29,-68 -42,-99 -13,-31 8,-35 10,-68 2,-33 -20,-79 -18,-93 2,-14 16,35 25,47 9,12 43,19 67,41 24,22 -1,43 2,86 3,43 -2,59 -2,59 0,0 -27,-53 -17,-93 10,-40 -36,-59 -40,-65 -4,-6 3,46 -7,62 C -32,-107 0,0 0,0"
             style="fill:#282855;fill-opacity:1;fill-rule:nonzero;stroke:none"
             id="path58" />
        </g>
        <g
           id="g60"
           transform="translate(2852.5,2219.5)">
          <path
             d="m 0,0 c 0,0 -29,-68 -42,-99 -13,-31 8,-35 10,-68 2,-33 -20,-79 -18,-93 2,-14 16,35 25,47 9,12 43,19 67,41 24,22 -1,43 2,86 3,43 -2,59 -2,59 0,0 -27,-53 -17,-93 10,-40 -36,-59 -40,-65 -4,-6 3,46 -7,62 C -32,-107 0,0 0,0 Z"
             style="fill:none;stroke:#bdbde0;stroke-width:1;stroke-linecap:butt;stroke-linejoin:miter;stroke-miterlimit:10;stroke-dasharray:none;stroke-opacity:1"
             id="path62" />
        </g>
        <g
           id="g64"
           transform="translate(2920.5,2039.5)">
          <path
             d="m 0,0 c 0,0 -34,-47 -36,-63 -2,-16 14,-16 15,-23 1,-7 -9,10 -4,23 5,13 25,63 25,63"
             style="fill:#282855;fill-opacity:1;fill-rule:nonzero;stroke:none"
             id="path66" />
        </g>
        <g
           id="g68"
           transform="translate(1301.0752,1966.4609)">
          <path
             d="m 0,0 c -3.313,0 -6.711,0.281 -10.101,0.835 -16.661,2.706 -33.464,12.378 -31.916,22.463 0.361,2.346 0.862,5.011 1.442,8.097 2.686,14.283 6.745,35.869 3.538,61.524 -1.108,8.869 -2.288,14.883 -3.236,19.716 -2.646,13.486 -3.118,18.312 3.422,39.386 8.939,28.804 22.923,91.731 28.895,118.603 5.528,24.877 2.369,34.657 -7.009,63.69 l -0.868,2.69 c -6.981,21.635 2.871,51.454 12.364,72.658 3.826,8.552 6.898,14.081 7.027,14.312 l 0.695,1.247 1.249,0.692 c 0.527,0.292 1.986,0.971 4.145,0.971 2.859,0 7.246,-1.201 11.913,-6.926 1.532,-1.892 3.022,-4.166 4.438,-6.772 1.945,-3.593 3.84,-7.951 5.634,-12.961 C 37.486,383.834 44.97,302.846 49.041,234.963 51.7,190.613 57.003,83.177 48.822,43.529 43.113,15.866 25.318,0 0,0"
             style="fill:#bdbde0;fill-opacity:1;fill-rule:nonzero;stroke:none"
             id="path70" />
        </g>
        <g
           id="g72"
           transform="translate(1310.7231,2398.3452)">
          <path
             d="m 0,0 v 0 c -3.206,0 -5.492,-1.001 -6.568,-1.598 l -2.498,-1.383 -1.391,-2.494 c -0.133,-0.239 -3.31,-5.956 -7.225,-14.707 -9.85,-22.002 -20.026,-53.09 -12.558,-76.234 l 0.869,-2.691 c 9.309,-28.821 12.12,-37.519 6.886,-61.069 -5.958,-26.811 -19.911,-89.598 -28.789,-118.205 -6.877,-22.161 -6.328,-27.691 -3.554,-41.831 0.933,-4.757 2.095,-10.677 3.182,-19.373 3.11,-24.88 -0.862,-46.003 -3.491,-59.981 -0.588,-3.13 -1.096,-5.832 -1.47,-8.259 -0.624,-4.072 0.134,-12.021 12.228,-19.555 6.628,-4.129 15.091,-7.186 23.833,-8.606 3.646,-0.596 7.315,-0.898 10.897,-0.898 12.398,0 23.661,3.628 32.57,10.491 10.658,8.21 17.774,20.667 21.149,37.027 8.303,40.234 2.986,148.195 0.314,192.744 -4.194,69.939 -11.617,149.637 -17.69,166.64 -1.882,5.256 -3.881,9.848 -5.944,13.658 -1.567,2.885 -3.227,5.413 -4.939,7.529 C 9.879,-1.521 3.941,0 0,0 m 0,-10 c 1.708,0 4.569,-0.833 8.037,-5.085 1.23,-1.52 2.55,-3.48 3.92,-6 1.7,-3.14 3.49,-7.15 5.32,-12.26 10,-28 30,-291 17,-354 -6.25,-30.284 -25.664,-39.539 -43.926,-39.539 -3.158,0 -6.28,0.276 -9.294,0.769 -15.82,2.57 -28.65,11.1 -27.78,16.77 2,13 9,39 5,71 -4,32 -9,28 0,57 9,29 23,92 29,119 6,27 2,38 -8,69 -6.76,20.949 4.29,51.48 12.17,69.08 3.78,8.45 6.83,13.92 6.83,13.92 0,0 0.623,0.345 1.723,0.345"
             style="fill:#282855;fill-opacity:1;fill-rule:nonzero;stroke:none"
             id="path74" />
        </g>
        <g
           id="g76"
           transform="translate(1329.4902,2388.4897)">
          <path
             d="m 0,0 -6.81,-11.23 -10.18,-16.76 c 0,0 -20,-8 -14,-43 6,-35 17,-49 2,-110 -15,-61 -30,-119 -26,-166 2.95,-34.69 14.08,-56.31 17.28,-69.269 -15.82,2.569 -28.65,11.099 -27.78,16.769 2,13 9,39 5,71 -4,32 -9,28 0,57 9,29 23,92 29,119 6,27 2,38 -8,69 -6.76,20.95 4.29,51.48 12.17,69.08 6.09,3.63 11.9,6.77 16.59,9.18 C -4.49,-2.03 -0.24,-0.1 0,0"
             style="fill:#8383bf;fill-opacity:1;fill-rule:nonzero;stroke:none"
             id="path78" />
        </g>
        <g
           id="g80"
           transform="translate(2788.5,2138.5)">
          <path
             d="m 0,0 c 0,0 -20,-304 -156,-529 -136,-225 -327,-502 -600,-536 -273,-34 -662,352 -709,501 -47,149 -36,293 -34,336 2,43 8,115 14,156 6,41 15,119 18,143 3,24 8,134 12,155 4,21 45,308 66,371 21,63 47,140 92,216 45,76 190,171 307,195 117,24 409,-63 503,-41 94,22 355,-29 376,-99 C -90,798 -25,701 4,576 33,451 55,370 33,279 11,188 0,0 0,0"
             style="fill:#bdbde0;fill-opacity:1;fill-rule:nonzero;stroke:none"
             id="path82" />
        </g>
        <g
           id="g84"
           transform="translate(2788.5,2138.5)">
          <path
             d="m 0,0 c 0,0 -20,-304 -156,-529 -136,-225 -327,-502 -600,-536 -273,-34 -662,352 -709,501 -47,149 -36,293 -34,336 2,43 8,115 14,156 6,41 15,119 18,143 3,24 8,134 12,155 4,21 45,308 66,371 21,63 47,140 92,216 45,76 190,171 307,195 117,24 409,-63 503,-41 94,22 355,-29 376,-99 C -90,798 -25,701 4,576 33,451 55,370 33,279 11,188 0,0 0,0 Z"
             style="fill:none;stroke:#282855;stroke-width:1;stroke-linecap:butt;stroke-linejoin:miter;stroke-miterlimit:10;stroke-dasharray:none;stroke-opacity:1"
             id="path86" />
        </g>
        <g
           id="g88"
           transform="translate(2684,1911)">
          <path
             d="m 0,0 c -27,-60 -127,-159 -144,-201 -17,-42 -53,-140 -61,-90 -8,50 -65,63 -135,116 -70,53 -86,49 -86,49 17,-2 73,-86 97,-96 24,-10 -61,1 -88,3 -27,2 -112,14 -139,18 -27,4 -30,-83 108,-95 138,-12 74,-70 80,-127 6,-57 -33,-85 -87,-148 -54,-63 -143,-87 -131,-43 12,44 39,80 38,88 -1,8 -62,-36 -118,-64 -56,-28 -233,104 -200,46 33,-58 33,-141 17,-149 -16,-8 -67,5 -156,89 -89,84 -55,177 -45,243 10,66 341,100 341,100 0,0 -116,92 -200,94 -83.35,1.98 -212.98,-95.47 -214.98,-96.98 29.01,41.01 113.98,137.98 113.98,137.98 -115,-48 -216,-247 -216,-247 0,0 -21,12 -47,82 -26,70 -90,324 -51,500 39,176 39,407 91,543 0,0 69,161 139,180 69.34,18.82 148.5,49.42 149.98,49.99 -39,-24 -99.98,-51.99 -99.98,-51.99 96,17 131,51 131,51 33,44 54,55 121,54 67,-1 239,-4 317,8 78,12 122,68 207,61 85,-7 145,-87 145,-87 0,0 73,-146 86,-274 C -24,615 30,565 39,485 48,405 49,246 49,246 55,181 27,60 0,0 m 108.5,803.5 c -29,125 -94,222 -115,292 -21,70 -282,121 -376,99 -94,-22 -386,65 -503,41 -117,-24 -262,-119 -307,-195 -45,-76 -71,-153 -92,-216 -21,-63 -62,-350 -66,-371 -4,-21 -9,-131 -12,-155 -3,-24 -12,-102 -18,-143 -6,-41 -12,-113 -14,-156 -2,-43 -13,-187 34,-336 47,-149 436,-535 709,-501 273,34 464,311 600,536 136,225 156,529 156,529 0,0 11,188 33,279 22,91 0,172 -29,297"
             style="fill:#8383bf;fill-opacity:1;fill-rule:nonzero;stroke:none"
             id="path90" />
        </g>
        <g
           id="g92"
           transform="translate(1545,2470)">
          <path
             d="m 0,0 c 0,0 217,-5 309,-150 0,0 -280,212 -378,-71 0,0 46,120 189,110 0,0 -150,-17 -189,-143 0,0 43,29 90,7 47,-22 120,-19 184,-12 64,7 172,25 149,-88 -23,-113 -119,-174 -146,-216 -27,-42 -26,-109 4,-147 30,-38 87,-24 115,-51 28,-27 161,-38 172,-42 11,-4 50,54 103,62 53,8 98,73 77,134 -21,61 -73,65 -99,121 -26,56 -48,246 85,212 133,-34 227,14 288,9 61,-5 76,-38 76,-38 0,0 -26,219 -287,159 0,0 144,101 268,-60 0,0 -26,167 -272,114 0,0 138,125 322,41 0,0 -178,141 -281,118 -103,-23 -189,3 -220,-76 -31,-79 -33,-203 -29,-279 4,-76 6,-215 53,-268 47,-53 51,-74 24,-73 -27,1 -65,26 -105,-1 -40,-27 -37,-69 -82,-69 -45,0 -63,29 -96,60 -33,31 -54,29 -81,25 -27,-4 -17,35 27,61 44,26 101,140 115,223 14,83 41,271 -109,333 C 126,67 0,0 0,0"
             style="fill:#8383bf;fill-opacity:1;fill-rule:nonzero;stroke:none"
             id="path94" />
        </g>
        <g
           id="g96"
           transform="translate(2320,1565)">
          <path
             d="m 0,0 c 0,0 -47,-20 -79,-40 -32,-20 -86,-36 -117,-47 -48.312,-17.144 -42,-19 -142,-35 -100,-16 -143,-1 -179,14 -42.501,17.709 -92,51 -128,58 -36,7 -65,22 -54,29 11,7 48.475,14.452 97.737,13.227 C -552,-9 -506.562,5 -457.781,0 -409,-5 -352,-14 -331,-7 c 21,7 92.509,16.128 147.754,5.064 C -128,-13 -45,6 -19,8 7,10 14,6 0,0"
             style="fill:#8383bf;fill-opacity:1;fill-rule:nonzero;stroke:none"
             id="path98" />
        </g>
        <g
           id="g100"
           transform="translate(1634,1538)">
          <path
             d="m 0,0 c 0.819,-0.277 1.693,-0.307 2.545,-0.401 0.858,-0.074 1.719,-0.126 2.58,-0.169 1.721,-0.086 3.444,-0.147 5.168,-0.193 3.449,-0.094 6.898,-0.154 10.349,-0.202 l 20.705,-0.354 c 13.806,-0.223 27.611,-0.589 41.421,-0.975 13.806,-0.446 27.611,-1.019 41.417,-1.673 13.807,-0.658 27.597,-1.539 41.398,-2.539 13.809,-0.951 27.606,-2.228 41.368,-3.762 13.763,-1.504 27.492,-3.314 41.13,-4.904 13.643,-1.619 27.155,-2.813 40.735,-2.909 3.395,-0.001 6.792,0.032 10.19,0.096 3.402,0.144 6.8,0.208 10.204,0.416 l 10.262,0.62 c 3.493,0.18 6.997,0.403 10.482,0.549 l 10.425,0.25 10.383,0.129 20.7,0.195 c 6.88,0.113 13.77,0.144 20.638,0.353 l 10.308,0.259 10.298,0.373 10.298,0.381 10.285,0.565 c 3.428,0.204 6.861,0.346 10.285,0.598 l 10.271,0.796 10.27,0.809 10.25,1.038 10.259,0.99 c 3.421,0.322 6.821,0.812 10.234,1.21 l 10.233,1.258 5.117,0.63 c 1.705,0.218 3.4,0.502 5.101,0.75 l 20.406,3.035 c 6.786,1.117 13.556,2.339 20.34,3.503 3.385,0.613 6.793,1.125 10.163,1.821 L 576.34,4.59 C 603.429,9.662 630.162,16.434 657,23 630.794,14.304 604.314,6.237 577.398,-0.205 l -10.081,-2.473 c -3.359,-0.833 -6.758,-1.48 -10.137,-2.23 -6.77,-1.439 -13.532,-2.934 -20.316,-4.326 l -20.444,-3.715 c -1.706,-0.298 -3.406,-0.631 -5.117,-0.901 l -5.138,-0.78 -10.276,-1.559 c -3.43,-0.498 -6.848,-1.089 -10.287,-1.512 l -10.318,-1.291 -10.326,-1.244 -10.352,-0.993 -10.355,-0.981 c -3.453,-0.312 -6.914,-0.517 -10.371,-0.78 l -10.374,-0.748 -10.383,-0.563 c -3.461,-0.177 -6.923,-0.383 -10.386,-0.502 l -10.384,-0.32 c -6.928,-0.25 -13.839,-0.32 -20.758,-0.473 -13.813,-0.239 -27.628,-0.32 -41.287,-0.793 -3.41,-0.123 -6.794,-0.32 -10.194,-0.476 l -10.406,-0.57 c -3.484,-0.192 -6.989,-0.241 -10.481,-0.367 -3.501,-0.047 -7.007,-0.061 -10.512,-0.039 -14.027,0.212 -28.059,1.415 -41.791,3.298 -13.751,1.842 -27.358,3.871 -41.009,5.598 -3.41,0.451 -6.823,0.865 -10.238,1.265 l -10.246,1.202 -10.252,1.169 -10.266,1.059 c -13.696,1.419 -27.436,2.558 -41.167,3.774 -13.735,1.201 -27.484,2.273 -41.241,3.305 L 41.219,-4.072 20.566,-2.465 C 17.125,-2.166 13.684,-1.857 10.245,-1.512 8.526,-1.341 6.807,-1.155 5.091,-0.944 4.234,-0.839 3.376,-0.723 2.522,-0.588 1.675,-0.43 0.801,-0.338 0,0"
             style="fill:#282855;fill-opacity:1;fill-rule:nonzero;stroke:none"
             id="path102" />
        </g>
        <g
           id="g104"
           transform="translate(1784,1544)">
          <path
             d="M 0,0 C 0.57,2.26 1.69,4.41 3.21,6.42 Z"
             style="fill:#282855;fill-opacity:1;fill-rule:nonzero;stroke:none"
             id="path106" />
        </g>
        <g
           id="g108"
           transform="translate(1793.02,1538.0703)">
          <path
             d="M 0,0 C 0.29,1.5 0.88,3 1.74,4.49 0.66,2.029 0.11,0.34 0,0"
             style="fill:#282855;fill-opacity:1;fill-rule:nonzero;stroke:none"
             id="path110" />
        </g>
        <g
           id="g112"
           transform="translate(1858.02,1539.0605)">
          <path
             d="m 0,0 c -0.02,-0.681 -0.02,-1.061 -0.02,-1.061 0,0 -0.03,0.35 0.02,1.061"
             style="fill:#282855;fill-opacity:1;fill-rule:nonzero;stroke:none"
             id="path114" />
        </g>
        <g
           id="g116"
           transform="translate(2050.6201,1565.1602)">
          <path
             d="M 0,0 C 1.1,-3.85 1.6,-6.5 1.38,-7.16 1.069,-8.1 0.55,-4.9 0,0"
             style="fill:#282855;fill-opacity:1;fill-rule:nonzero;stroke:none"
             id="path118" />
        </g>
        <g
           id="g120"
           transform="translate(2063.4395,1264.8398)">
          <path
             d="M 0,0 C 0.291,-0.46 0.49,-0.74 0.541,-0.82 0.471,-0.74 0.261,-0.49 0,0"
             style="fill:#282855;fill-opacity:1;fill-rule:nonzero;stroke:none"
             id="path122" />
        </g>
        <g
           id="g124"
           transform="translate(2063.9102,1558.4395)">
          <path
             d="M 0,0 C 0.06,-0.209 0.09,-0.359 0.09,-0.439 0.09,-0.609 0.06,-0.449 0,0"
             style="fill:#282855;fill-opacity:1;fill-rule:nonzero;stroke:none"
             id="path126" />
        </g>
        <g
           id="g128"
           transform="translate(2075.5801,1562.3701)">
          <path
             d="M 0,0 C 0.39,-1.56 0.55,-2.74 0.42,-3.37 0.18,-4.58 0.05,-3.04 0,0"
             style="fill:#282855;fill-opacity:1;fill-rule:nonzero;stroke:none"
             id="path130" />
        </g>
        <g
           id="g132"
           transform="translate(2187,1538)">
          <path
             d="M 0,0 C -0.07,0.1 -0.3,0.85 -0.68,2.12 -0.24,0.87 0,0.109 0,0"
             style="fill:#282855;fill-opacity:1;fill-rule:nonzero;stroke:none"
             id="path134" />
        </g>
        <g
           id="g136"
           transform="translate(2266.7402,1559.6201)">
          <path
             d="M 0,0 C 0.17,-0.34 0.26,-0.55 0.26,-0.62 0.26,-0.729 0.17,-0.5 0,0"
             style="fill:#282855;fill-opacity:1;fill-rule:nonzero;stroke:none"
             id="path138" />
        </g>
        <g
           id="g140"
           transform="translate(2279.8701,1563.2598)">
          <path
             d="M 0,0 C 0.09,-0.13 0.13,-0.22 0.13,-0.26 0.13,-0.33 0.09,-0.24 0,0"
             style="fill:#282855;fill-opacity:1;fill-rule:nonzero;stroke:none"
             id="path142" />
        </g>
        <g
           id="g144"
           transform="translate(1530,2890)">
          <path
             d="M 0,0 C 0.93,0.18 1.84,0.37 2.72,0.58 2.43,0.16 2.14,-0.26 1.85,-0.68 -0.22,-0.66 0,0 0,0"
             style="fill:#bdbde0;fill-opacity:1;fill-rule:nonzero;stroke:none"
             id="path146" />
        </g>
        <g
           id="g148"
           transform="translate(1533.8799,2892.25)">
          <path
             d="M 0,0 C 33.28,47.82 72.07,90.59 83.37,102.78 73.14,89.55 60.99,54.23 36.62,26.25 c 0,0 -8.94,-21.17 -37.78,-27.92 0.39,0.56 0.77,1.11 1.16,1.67"
             style="fill:#bdbde0;fill-opacity:1;fill-rule:nonzero;stroke:none"
             id="path150" />
        </g>
        <g
           id="g152"
           transform="translate(1620.5,2998.5)">
          <path
             d="M 0,0 C 0,0 -1.14,-1.2 -3.22,-3.44 -2.13,-2.03 -1.06,-0.87 0,0"
             style="fill:#bdbde0;fill-opacity:1;fill-rule:nonzero;stroke:none"
             id="path154" />
        </g>
        <g
           id="g156"
           transform="translate(1674.7271,2453.9551)">
          <path
             d="m 0,0 68.273,-14.955 -49,23 94,-35 c 0,0 -38,28 -35,28 3,0 100,-49 100,-49 l -53,46 c 0,0 46.495,-23.248 66.166,-44.317 6.434,-6.892 17.145,-7.54 24.415,-1.536 15.522,12.818 31.193,38.125 -6.581,77.853 0,0 18,-21 16,-41 0,0 -13,53 -78,83 0,0 27,-15 42,-40 0,0 -42,52 -153,65 -111,13 -198,-34 -198,-34 0,0 45,15 68,15 0,0 -132,-9 -157,-144 0,0 44.248,50.569 165.053,68.829 C -57.188,7.18 -28.143,6.165 0,0"
             style="fill:#282855;fill-opacity:1;fill-rule:nonzero;stroke:none"
             id="path158" />
        </g>
        <g
           id="g160"
           transform="translate(2337,2483)">
          <path
             d="m 0,0 c 0,0 -79,-9 -114,-28 l 26,14 c 0,0 -70,-9 -95,-38 0,0 13,21 17,21 0,0 -25,-18 -43,-28 -18,-10 -42,43 -3,80 0,0 -10,-18 -10,-37 0,0 17,58 73,76 0,0 -19,-10 -24,-26 0,0 35,41 128,50 0,0 -28,-5 -44,-18 0,0 124,46 216,13 C 219,46 284,-22 310,-116 310,-116 173,22 0,0"
             style="fill:#282855;fill-opacity:1;fill-rule:nonzero;stroke:none"
             id="path162" />
        </g>
        <g
           id="g164"
           transform="translate(2376,2211)">
          <path
             d="m 0,0 c 0,0 -26,1 -60,8 -34,7 -46,3 -69,2 -23,-1 -63,4 -52,13 11,9 38,25 62,42 24,17 62,44 119,44 57,0 129,-28 160,-84 L 134,37 C 134,37 74,0 0,0"
             style="fill:#282855;fill-opacity:1;fill-rule:nonzero;stroke:none"
             id="path166" />
        </g>
        <g
           id="g168"
           transform="translate(2495,2255)">
          <path
             d="m 0,0 c 0,0 -37.141,-22.48 -78.57,-30.72 -0.48,-0.1 -0.95,-0.19 -1.43,-0.28 -30.29,-5.77 -72.53,1.46 -107.24,5.57 -13.42,1.59 -25.72,2.71 -35.76,2.43 -36,-1 -62,-4 -46,10 11.05,9.67 44.51,36.51 78,53.83 15,7.77 30.01,13.62 43,15.17 20.359,2.42 46.6,0.38 72.68,-7.72 C -47.62,39.67 -20.09,24.21 0,0"
             style="fill:#bdbde0;fill-opacity:1;fill-rule:nonzero;stroke:none"
             id="path170" />
        </g>
        <g
           id="g172"
           transform="translate(2431,2266)">
          <path
             d="m 0,0 c 0,-15.77 -5.45,-30.27 -14.57,-41.72 -0.48,-0.1 -0.95,-0.19 -1.43,-0.28 -30.29,-5.77 -72.53,1.46 -107.24,5.57 -6.81,10.48 -10.76,23 -10.76,36.43 0,10.72 2.52,20.85 7,29.83 15,7.77 30.01,13.62 43,15.17 20.359,2.42 46.6,0.38 72.68,-7.72 C -4.17,26.62 0,13.8 0,0"
             style="fill:#282855;fill-opacity:1;fill-rule:nonzero;stroke:none"
             id="path174" />
        </g>
        <g
           id="g176"
           transform="translate(1688,2224)">
          <path
             d="m 0,0 c 2,0 42,3 62,9 20,6 33,6 55,0 22,-6 51,-7 28,17 -23,24 -65,65 -121,82 -56,17 -163,-7 -205,-86 l 34,12 c 0,0 28,-19 67,-29 C -41,-5 0,0 0,0"
             style="fill:#282855;fill-opacity:1;fill-rule:nonzero;stroke:none"
             id="path178" />
        </g>
        <g
           id="g180"
           transform="translate(1806,2239)">
          <path
             d="m 0,0 c -11,0 -28,11 -56,1 -3.64,-1.3 -9.14,-2.72 -15.91,-4.07 -25.24,-5.02 -68.13,-9.03 -98.09,-1.93 -2.74,0.65 -5.51,1.38 -8.29,2.17 C -214.11,7.34 -252,28 -252,28 c 4.49,13.47 33.67,38.88 70.39,52.45 20.51,7.6 43.38,11.49 65.61,7.55 22.78,-4.04 39.51,-9.88 52.99,-16.68 C -39.81,59.63 -26.25,45.1 -8,32 31,4 11,0 0,0"
             style="fill:#bdbde0;fill-opacity:1;fill-rule:nonzero;stroke:none"
             id="path182" />
        </g>
        <g
           id="g184"
           transform="translate(1750,2280)">
          <path
             d="M 0,0 C 0,-16.76 -5.97,-32.12 -15.91,-44.07 -41.15,-49.09 -84.04,-53.1 -114,-46 c -2.74,0.65 -5.51,1.38 -8.29,2.17 -9.82,11.92 -15.71,27.18 -15.71,43.83 0,14.68 4.58,28.27 12.39,39.45 20.51,7.6 43.38,11.49 65.61,7.55 22.78,-4.04 39.51,-9.88 52.99,-16.68 C -2.52,21.17 0,10.88 0,0"
             style="fill:#282855;fill-opacity:1;fill-rule:nonzero;stroke:none"
             id="path186" />
        </g>
        <g
           id="g188"
           transform="translate(2200,2279)">
          <path
             d="m 0,0 c 3.484,2.424 6.833,5.017 10.102,7.699 3.293,2.649 6.47,5.434 9.604,8.254 6.23,5.687 12.233,11.594 17.881,17.816 1.39,1.577 2.851,3.082 4.216,4.676 l 4.111,4.762 3.972,4.874 c 0.625,0.781 1.395,1.687 2.152,2.57 0.784,0.82 1.552,1.685 2.374,2.439 3.234,3.129 6.736,5.799 10.329,8.282 3.597,2.479 7.3,4.752 11.067,6.893 7.531,4.29 15.337,8.021 23.326,11.28 7.969,3.318 16.147,6.087 24.415,8.55 8.278,2.434 16.695,4.39 25.183,5.992 8.494,1.58 17.086,2.651 25.715,3.317 8.633,0.616 17.31,0.776 25.978,0.394 8.663,-0.44 17.316,-1.372 25.866,-2.946 8.544,-1.584 17,-3.723 25.222,-6.565 2.062,-0.687 4.086,-1.493 6.128,-2.234 2.024,-0.793 4.028,-1.64 6.034,-2.474 l 5.914,-2.746 c 1.932,-0.995 3.879,-1.959 5.794,-2.979 7.634,-4.139 14.967,-8.824 21.783,-14.158 6.815,-5.331 13.195,-11.178 19.065,-17.466 C 327.893,33.567 337.496,19.229 345,4 c -9.429,14.114 -19.945,27.408 -32.246,38.764 -6.108,5.705 -12.6,10.962 -19.46,15.645 -6.857,4.683 -13.996,8.92 -21.457,12.493 -14.919,7.15 -30.858,11.981 -47.162,14.603 -16.305,2.657 -32.96,3.173 -49.496,1.929 -8.273,-0.593 -16.526,-1.605 -24.71,-3.054 -8.192,-1.408 -16.315,-3.239 -24.354,-5.393 C 110.063,74.619 94.318,68.874 79.496,61.423 72.135,57.669 64.943,53.398 58.809,48.271 58.023,47.642 57.344,46.954 56.615,46.292 55.953,45.603 55.297,44.941 54.544,44.113 l -4.37,-4.718 -4.501,-4.589 C 44.172,33.279 42.609,31.812 41.061,30.336 34.792,24.506 28.293,18.939 21.458,13.826 14.609,8.744 7.533,3.944 0,0"
             style="fill:#282855;fill-opacity:1;fill-rule:nonzero;stroke:none"
             id="path190" />
        </g>
        <g
           id="g192"
           transform="translate(1854.5,2283.5)">
          <path
             d="m 0,0 c -7.173,5.121 -14.006,10.716 -20.697,16.47 -6.688,5.763 -13.14,11.799 -19.483,17.958 -3.165,3.087 -6.236,6.267 -9.31,9.448 l -4.559,4.824 c -1.407,1.445 -2.827,2.717 -4.533,3.925 -3.318,2.412 -7.024,4.518 -10.813,6.453 -3.799,1.934 -7.744,3.652 -11.737,5.257 -16.036,6.319 -32.832,10.942 -49.814,14.352 -16.994,3.395 -34.235,5.603 -51.517,6.379 -8.638,0.416 -17.288,0.469 -25.913,0.113 -8.626,-0.315 -17.226,-1.077 -25.756,-2.263 -17.055,-2.373 -33.82,-6.705 -49.65,-13.359 -7.911,-3.335 -15.513,-7.373 -22.772,-11.972 -7.268,-4.591 -14.1,-9.895 -20.38,-15.826 C -339.616,29.993 -349.901,15.633 -358,0 c 6.065,16.54 15.434,32.044 27.584,45.221 6.093,6.566 12.884,12.511 20.174,17.782 7.288,5.281 15.135,9.774 23.249,13.667 l 3.051,1.45 3.099,1.338 c 1.036,0.438 2.061,0.909 3.108,1.32 l 3.144,1.228 c 4.198,1.624 8.477,3.024 12.781,4.326 8.613,2.591 17.406,4.533 26.263,5.962 8.86,1.425 17.793,2.289 26.732,2.752 8.942,0.422 17.893,0.405 26.818,0.006 8.924,-0.441 17.824,-1.233 26.667,-2.418 8.838,-1.223 17.632,-2.751 26.338,-4.689 8.708,-1.926 17.339,-4.21 25.844,-6.927 8.514,-2.683 16.898,-5.825 25.073,-9.536 4.087,-1.857 8.131,-3.833 12.076,-6.065 3.941,-2.237 7.826,-4.64 11.435,-7.653 1.804,-1.446 3.576,-3.218 5.118,-5.031 l 4.204,-5.032 c 2.832,-3.331 5.7,-6.635 8.604,-9.91 C -25.057,24.656 -12.883,12.003 0,0"
             style="fill:#282855;fill-opacity:1;fill-rule:nonzero;stroke:none"
             id="path194" />
        </g>
        <g
           id="g196"
           transform="translate(1841,1978)">
          <path
             d="m 0,0 c -5.278,-9.98 -11.67,-19.329 -18.424,-28.416 -6.809,-9.052 -14.293,-17.632 -22.41,-25.659 -2.047,-1.989 -4.076,-4.001 -6.232,-5.888 l -3.205,-2.861 c -1.068,-0.955 -2.209,-1.831 -3.312,-2.75 l -3.338,-2.729 -2.985,-2.51 c -0.959,-0.853 -1.855,-1.796 -2.788,-2.685 -0.907,-0.922 -1.737,-1.936 -2.612,-2.894 -3.362,-3.987 -6.319,-8.383 -8.822,-13.047 -2.517,-4.655 -4.704,-9.531 -6.349,-14.604 -6.836,-20.181 -7.428,-42.674 -0.45,-63.012 0.396,-1.283 0.954,-2.506 1.408,-3.772 l 0.717,-1.888 c 0.234,-0.632 0.55,-1.226 0.821,-1.842 l 1.689,-3.676 1.916,-3.571 0.959,-1.792 1.083,-1.718 2.162,-3.457 2.388,-3.316 1.197,-1.664 c 0.419,-0.539 0.87,-1.052 1.296,-1.588 6.825,-8.582 15.176,-16.036 24.291,-22.661 -10.246,4.711 -19.723,11.303 -27.944,19.381 -0.519,0.5 -1.044,0.997 -1.543,1.516 l -1.44,1.615 -2.886,3.244 -2.645,3.451 -1.321,1.735 -1.2,1.82 c -0.796,1.217 -1.615,2.424 -2.388,3.66 l -2.129,3.824 c -0.344,0.644 -0.733,1.267 -1.041,1.929 l -0.936,1.982 c -0.608,1.329 -1.282,2.636 -1.807,4.002 -2.252,5.413 -3.915,11.062 -5.159,16.806 -1.147,5.765 -1.745,11.628 -1.928,17.507 -0.067,5.88 0.363,11.756 1.207,17.575 0.937,5.807 2.365,11.529 4.216,17.12 3.798,11.138 9.516,21.741 17.539,30.696 1.049,1.082 2.047,2.203 3.143,3.243 1.129,1.013 2.213,2.065 3.382,3.035 1.183,0.925 2.44,1.921 3.575,2.763 l 3.302,2.442 c 1.093,0.826 2.222,1.603 3.289,2.468 l 3.215,2.581 c 2.181,1.675 4.255,3.493 6.351,5.288 8.359,7.208 16.34,14.951 23.996,23.055 C -14.461,-17.181 -7.105,-8.74 0,0"
             style="fill:#282855;fill-opacity:1;fill-rule:nonzero;stroke:none"
             id="path198" />
        </g>
        <g
           id="g200"
           transform="translate(2128,1956)">
          <path
             d="m 0,0 c 7.18,-8.513 14.331,-16.971 21.737,-25.168 7.398,-8.189 14.943,-16.217 22.908,-23.635 0.998,-0.922 1.971,-1.877 2.988,-2.769 l 3.068,-2.647 c 2.007,-1.823 4.16,-3.385 6.238,-5.063 1.038,-0.849 2.158,-1.514 3.228,-2.281 l 3.478,-2.416 c 2.74,-1.965 4.914,-4.34 6.826,-6.801 3.787,-4.962 6.333,-10.427 8.358,-15.96 1.979,-5.559 3.342,-11.252 4.253,-16.989 0.888,-5.74 1.303,-11.529 1.304,-17.31 -0.017,-2.892 -0.127,-5.781 -0.364,-8.662 -0.222,-2.88 -0.536,-5.755 -1.008,-8.608 -1.812,-11.404 -5.373,-22.608 -11,-32.744 C 66.43,-181.187 58.8,-190.23 49.601,-197.061 40.424,-203.912 29.873,-208.61 19,-211 c 10.175,4.502 19.663,10.228 27.448,17.704 7.861,7.364 14.089,16.204 18.564,25.819 4.494,9.614 7.296,19.973 8.611,30.504 0.666,5.266 0.978,10.582 0.886,15.887 -0.05,5.303 -0.468,10.605 -1.304,15.816 -0.781,5.219 -2.008,10.355 -3.682,15.266 -1.647,4.908 -3.835,9.615 -6.65,13.583 -1.41,1.962 -2.977,3.767 -4.709,5.094 l -3.255,2.464 c -1.141,0.902 -2.366,1.734 -3.432,2.694 -4.395,3.732 -8.536,7.662 -12.364,11.815 -7.72,8.262 -14.684,17.051 -21.187,26.131 C 11.513,-19.078 5.367,-9.772 0,0"
             style="fill:#282855;fill-opacity:1;fill-rule:nonzero;stroke:none"
             id="path202" />
        </g>
        <g
           id="g204"
           transform="translate(1863,1768)">
          <path
             d="m 0,0 c 0,0 -23,-4 -47,16 -24,20 -16,44 -7,47 9,3 37,8 63,-28 26,-36 51,-54 73,-57 22,-3 51,10 71,35 20,25 57,52 90,52 33,0 58,-18 57,-38 C 299,7 220,-13 197,1 174,15 155,4 145,-8 135,-20 102,-35 78,-31 54,-27 33,-1 22,2 11,5 7,0 0,0"
             style="fill:#282855;fill-opacity:1;fill-rule:nonzero;stroke:none"
             id="path206" />
        </g>
        <g
           id="g208"
           transform="translate(1719.1802,1561.7002)">
          <path
             d="M 0,0 C 0.56,3.729 1.68,8.02 3.82,12.3 Z"
             style="fill:#bdbde0;fill-opacity:1;fill-rule:nonzero;stroke:none"
             id="path210" />
        </g>
        <g
           id="g212"
           transform="translate(1784,1544)">
          <path
             d="M 0,0 C 0.57,2.26 1.69,4.41 3.21,6.42 Z"
             style="fill:#bdbde0;fill-opacity:1;fill-rule:nonzero;stroke:none"
             id="path214" />
        </g>
        <g
           id="g216"
           transform="translate(1793.02,1538.0703)">
          <path
             d="M 0,0 C 0.29,1.5 0.88,3 1.74,4.49 0.66,2.029 0.11,0.34 0,0"
             style="fill:#bdbde0;fill-opacity:1;fill-rule:nonzero;stroke:none"
             id="path218" />
        </g>
        <g
           id="g220"
           transform="translate(1858.02,1539.0605)">
          <path
             d="m 0,0 c -0.02,-0.681 -0.02,-1.061 -0.02,-1.061 0,0 -0.03,0.35 0.02,1.061"
             style="fill:#bdbde0;fill-opacity:1;fill-rule:nonzero;stroke:none"
             id="path222" />
        </g>
        <g
           id="g224"
           transform="translate(2050.6201,1565.1602)">
          <path
             d="M 0,0 C 1.1,-3.85 1.6,-6.5 1.38,-7.16 1.069,-8.1 0.55,-4.9 0,0"
             style="fill:#bdbde0;fill-opacity:1;fill-rule:nonzero;stroke:none"
             id="path226" />
        </g>
        <g
           id="g228"
           transform="translate(2063.4395,1264.8398)">
          <path
             d="M 0,0 C 0.291,-0.46 0.49,-0.74 0.541,-0.82 0.471,-0.74 0.261,-0.49 0,0"
             style="fill:#bdbde0;fill-opacity:1;fill-rule:nonzero;stroke:none"
             id="path230" />
        </g>
        <g
           id="g232"
           transform="translate(2063.9102,1558.4395)">
          <path
             d="M 0,0 C 0.06,-0.209 0.09,-0.359 0.09,-0.439 0.09,-0.609 0.06,-0.449 0,0"
             style="fill:#bdbde0;fill-opacity:1;fill-rule:nonzero;stroke:none"
             id="path234" />
        </g>
        <g
           id="g236"
           transform="translate(2075.5801,1562.3701)">
          <path
             d="M 0,0 C 0.39,-1.56 0.55,-2.74 0.42,-3.37 0.18,-4.58 0.05,-3.04 0,0"
             style="fill:#bdbde0;fill-opacity:1;fill-rule:nonzero;stroke:none"
             id="path238" />
        </g>
        <g
           id="g240"
           transform="translate(2186.3203,1540.1201)">
          <path
             d="M 0,0 C 0.439,-1.25 0.68,-2.011 0.68,-2.12 0.609,-2.021 0.38,-1.271 0,0"
             style="fill:#bdbde0;fill-opacity:1;fill-rule:nonzero;stroke:none"
             id="path242" />
        </g>
        <g
           id="g244"
           transform="translate(2231,1587)">
          <path
             d="M 0,0 C 0.03,-0.09 0.061,-0.22 0.09,-0.37 -0.07,0.16 -0.109,0.32 0,0"
             style="fill:#bdbde0;fill-opacity:1;fill-rule:nonzero;stroke:none"
             id="path246" />
        </g>
        <g
           id="g248"
           transform="translate(2266.7402,1559.6201)">
          <path
             d="M 0,0 C 0.17,-0.34 0.26,-0.55 0.26,-0.62 0.26,-0.729 0.17,-0.5 0,0"
             style="fill:#bdbde0;fill-opacity:1;fill-rule:nonzero;stroke:none"
             id="path250" />
        </g>
        <g
           id="g252"
           transform="translate(2279.8701,1563.2598)">
          <path
             d="M 0,0 C 0.09,-0.13 0.13,-0.22 0.13,-0.26 0.13,-0.33 0.09,-0.24 0,0"
             style="fill:#bdbde0;fill-opacity:1;fill-rule:nonzero;stroke:none"
             id="path254" />
        </g>
        <g
           id="g256"
           transform="translate(2293.6504,1587.7305)">
          <path
             d="m 0,0 c -0.87,0.489 -1.75,0.91 -2.65,1.27 0,0 1.33,0.669 2.65,-1.27"
             style="fill:#bdbde0;fill-opacity:1;fill-rule:nonzero;stroke:none"
             id="path258" />
        </g>
        <g
           id="g260"
           transform="translate(2760,2039)">
          <path
             d="m 0,0 c 0,0 -13.5,-73.5 -20.5,-107.5 -7,-34 -70,-111 -128,-196 -58,-85 -76,-143 -118,-231 -42,-88 -36,-18 -38,69 -2,87 -85,107 -85,107 25,-11 26,-26 26,-26 -24,34 -79,21 -124,19 -45,-2 -137,48 -137,48 l 22,-27 c -43,34 -87,58 -145,40 -58,-18 -51,-19 -127,-10 -75.45,8.939 -172.59,-42.26 -173.98,-42.99 29.54,22.64 86.17,40.429 87.94,40.98 -132.98,-19.01 -247.96,-124.99 -247.96,-124.99 16.73,36.42 70.29,68 71.96,68.98 -89.97,-31.01 -125.96,-139.98 -125.96,-139.98 0,23 19,61 19,61 -50,-52 -36,-194 -59,-147 -23,47 -44,131 -73,184 -29,53 -76,154 -85,222 -9,68 3,192 3,192 0,0 25,191 45,267 20,76 33,165 46,245 13,80 70,217 109,291 5.449,10.343 11.684,20.86 18.372,31.302 6.113,9.545 15.502,16.552 26.44,19.523 1.297,0.352 2.69,0.742 4.188,1.175 69.94,20.21 45,112 136,123 16.333,1.975 31.403,2.623 45.149,2.366 -8.318,-7.015 -15.611,-16.381 -20.649,-28.866 -23,-57 -59,-95 -125,-106 0,0 82,5 109,50 16.907,28.178 23.233,54.001 45.73,74.527 6.737,6.147 15.872,8.968 24.904,7.712 41.339,-5.749 63.866,-18.739 63.866,-18.739 -20,-9 -64,2 -73,-39 -9,-41 -18,-55 -49,-72 -31,-17 -85,-15 -138,-36 -52.52,-20.81 -118.78,-123.11 -119.98,-124.97 0.99,1.14 32.82,37.81 54.48,59.47 22,22 36,55 128,74 92,19 112,37 122,54 10,17 7,43 27,55 20,12 49,24 92,18 0,0 -70,-2 -87,-29 -17,-27 -21,-67 -49,-79 -27.53,-11.8 -93.71,-29.39 -95.94,-29.99 2.52,0.4 83.27,13.18 103.94,24.99 21,12 34,47 42,65 8,18 73,45 100,44 27,-1 52,-4 52,-4 100,-32 171,9 266,16 95,7 170,69 242,52 72,-17 133,-64 177,-141 44,-77 50,-194 64,-254 C -57,552 -3,448 0,377 3,306 8,276 9,156 10,36 0,0 0,0 m -426,-639 c 0,0 -8,18 -12,12 -3.97,-5.95 -71.93,-109.37 -72.99,-110.98 l 11.99,34.98 -64,-85 2,21 c -14,-23 -128,-86 -155,-44 -26.66,41.48 24.689,90.76 25.98,91.98 -20.31,-29.16 -9.39,-50.51 -6.58,-55.07 -2.18,4.17 -7.17,24 39.6,88.09 54,74 -16,64 -41,49 -25,-15 -93,-26 -136,-22 -43,4 -89,20 -121,31 -32,11 -34,-21 -2,-65 32,-44 61,-77 61,-77 l -15,31 c 0,0 36,-30 23,-67 -13,-37 -85,-51 -117,-31 -31.75,19.84 -79.25,82.02 -79.99,82.99 l 22.99,-56.99 -56,95 -13,-23 2,27 c -51,51 -42,163 -42,163 0,-10.83 9.69,-34.25 9.99,-34.98 -9.85,34.55 15.33,97.31 16,98.95 -4.98,-20.98 4.01,-29.97 4.01,-29.97 -3.94,12.811 18.34,42.141 18.99,42.98 -4.97,-14.99 12.01,-27.98 12.01,-27.98 -8,16 3,28 3,28 -5,-16 5,-30 5,-30 -4,19 0,32 0,32 -2.66,-15.96 6.48,-28.78 8.58,-31.48 -6.29,8.51 0.42,32.48 0.42,32.48 -2,-19 8,-25 8,-25 -4.88,10.75 1.68,26.27 1.99,26.97 -5.98,-19.97 3.01,-19.97 3.01,-19.97 l 3,25 5,-35 3,31 2,-25 3,28 c 0,0 6,-30 6,-31 0.15,0.97 2,25 2,25 l 5,-26 4,27 1,-26 5.18,16.7 c -1.01,-6.74 -0.18,-11.7 -0.18,-11.7 -0.98,17.73 15.49,27.689 15.99,27.99 -12.75,-17.67 -4.31,-34.37 -4,-34.97 -4.98,17.99 15.01,34.98 15.01,34.98 0,0 6,4 -1,-3 -7,-7 -4,-25 -4,-25 l 8,23 v -24 l 14,25 v -31 l 10,25 v -24 l 12,27 -8,-28 19,25 -8.79,-17.58 c 9.04,11.99 31.94,19.31 32.77,19.57 -14.41,-6.49 -22.07,-20.25 -25.22,-27.429 10.93,19.169 64.1,37.059 65.22,37.429 -29.42,-16.679 -34.78,-36.24 -34.97,-36.97 8.03,12.01 42.99,34.98 42.99,34.98 -8.7,-13.92 -9.83,-33.891 -9.98,-38.85 0.27,3.34 2.34,13.959 16.98,31.85 18,22 67,47 67,47 0,0 17,6 32,-4 15,-10 50,-50 50,-50 -1,22 -19,48 -19,48 14,-10 35,-51 35,-51 0,24 -20,54 -20,54 14.85,-7.04 26.65,-36.061 30.62,-49.84 -1.21,10.69 -2.62,29.47 -2.62,30.84 0,1.92 14.68,-32.88 15.91,-37.561 -0.57,4.721 -3.91,40.741 -3.91,42.561 0,1.75 12.98,-27.8 15.58,-38.63 -0.15,9.51 0.42,33.63 0.42,33.63 l 9,-37 -1,36 c 7,-11 13,-36 13,-36 4,14 -4,32 -4,32 11,-9 21,-40 21,-40 0,9.84 -9.689,42.939 -9.99,43.98 9,-14.01 17.99,-42.98 17.99,-42.98 -0.96,13.53 -8.47,40.13 -8.97,41.9 L -632,-486 v 37 l 13,-40 14,44 -2,-45 6,43 11,-46 -2,44 c 0,0 14.939,-40.109 18.32,-49.88 -2.929,9.89 -14.32,50.88 -14.32,50.88 l 29,-44 -19,46 30,-48 -12,36 16,-33 6,39 c 0,0 10.63,-36.73 10.99,-38.92 -0.08,2.05 -0.97,33.811 -1.9,38.529 1.349,-4.529 11.019,-35.718 11.91,-36.609 1,-1 -2,45 -2,45 l 10,-32 c 0,0 -5,28 -5,30 0,1.87 18.28,-28.47 20.73,-33.359 -1.4,4.179 -7.839,26.579 -8.73,28.359 -0.95,1.91 19.97,-21.71 21.859,-24.72 -1.089,3.14 -8.599,29.81 -8.849,30.7 L -472,-472 l -9,23 c 14,-6 17,-12 17,-12 -0.42,5.5 -1.38,8.32 -2.35,9.73 13.63,-7.52 23.35,-28.73 23.35,-28.73 0,26 -23,48 -23,48 36,-13 44,-66 44,-66 0.98,18.66 -8.65,39.25 -8.98,39.98 0.48,-0.46 8.291,-8.48 17.98,-54.98 10,-48 -17,-105 -17,-105 z m -967.5,1479.5 c -0.81,-26.69 -3.58,-49.02 -7.2,-67.39 -14.2,39.44 -51.44,178.34 102.18,236.38 -1.41,-1.09 -92,-70.76 -94.98,-168.99 m 1539,-99 c 0,0 24.49,145.46 -83.93,217.96 2.81,-1.43 93.289,-47.96 115.93,-110.96 0,0 -19,114 -152,155 0,0 100.99,7 151.99,-43.99 -0.7,1.13 -51.82,82.84 -171.99,60.99 0,0 53,57 33,108 0,0 11,-53 -38,-94 0,0 48.97,90.94 0.04,167.93 1.14,-2.23 28.351,-56.56 -0.03,-133.9 0.25,2.02 10.76,91.93 -96.98,177.94 1.37,-1.35 45.21,-45.08 60.96,-115.94 -0.75,2.23 -49.17,145.56 -198.97,221.96 1.73,-1.21 112.22,-78.57 144.97,-153.97 -1.17,1.9 -76.58,123.22 -277.99,153.98 0,0 119.96,-39.99 180.97,-94.98 -2.57,1.62 -166.909,104.78 -411.97,79.98 0,0 197.96,-18 256.98,-60.99 -2.58,0.97 -248.19,93.51 -475.98,2.99 0,0 214,30 297,-10 0,0 -212.5,44.5 -464.94,-40.99 3.02,0.46 125.43,18.87 164.94,8.99 0,0 -228,-6 -371,-80 0,0 51.9,11.32 76.86,14.72 0.74,0.1 1.45,0.19 2.14,0.28 24,3 -251.99,-38 -316.99,-230.99 0.72,1.16 47.36,75.12 99.92,99.95 -3.83,-2.47 -160.47,-104.6 -71.58,-270.61 -9.61,-47.12 -24.67,-67.45 -25.32,-68.32 1.24,1.23 41,41.27 46.96,126.79 -0.15,-3.64 -3.02,-63.1 -34.99,-133.82 -33,-73 -37,-238 -44,-276 -7,-38 -20,-111 -20,-111 l 22,57 -22,-77 26,43 c 0,0 10,-51 10,-84 0,-33 0,-85 -6,-130 -6,-45 -21,-146 -33,-186 -12,-40 8,-179 8,-240 0,-60.99 -5,-195.98 29.99,-269.98 -0.3,1.14 -11.93,45.33 -6.99,71.98 0,0 25,-172 195,-353 0,0 -9,1 -37.99,30.99 0.81,-1.75 105.2,-225.75 286.48,-293.48 -0.48,0.26 -15.95,8.89 -45.47,34.48 2.03,-1.27 176.03,-109.56 353.98,-36.99 0,0 -16,-21 -47,-29 0,0 140.5,10.5 316.5,182.5 l -42.73,-15.891 c 8.99,3.671 241.38,101.131 375.23,415.391 0,0 4,-21 -22.99,-70.99 1.11,0.72 72.2,47.679 98.99,261.99 27,216 54,345 54,345 0,0 4,183 25,244 21,61 60,57 81,147 21,90 -18,250 -16,301 2,51 13,140 -19,176 0,0 28.5,-15.5 41,-91"
             style="fill:#282855;fill-opacity:1;fill-rule:nonzero;stroke:none"
             id="path262" />
        </g>
      </g>
    </g>
  </g>
</svg>
